<svg xmlns="http://www.w3.org/2000/svg" width="32" height="32" viewBox="0 0 32 32" fill="none">
  <rect width="32" height="32" rx="8" fill="#FDF6EC"/>
  <path d="M8.5 14.5 C6.8 10.5 7.2 7.5 9 6.6 C10.4 5.9 12.3 7.4 13.4 8.8" stroke="#3E3128" stroke-width="1.7" stroke-linecap="round" fill="#F6E7D7"/>
  <path d="M23.5 14.5 C25.2 10.5 24.8 7.5 23 6.6 C21.6 5.9 19.7 7.4 18.6 8.8" stroke="#3E3128" stroke-width="1.7" stroke-linecap="round" fill="#F6E7D7"/>
  <ellipse cx="16" cy="19" rx="9.5" ry="8.2" fill="#FFFDF8" stroke="#3E3128" stroke-width="1.7"/>
  <path d="M10 9.8 C10 7.2 12.7 5.4 16 5.4 C19.3 5.4 22 7.2 22 9.8 C22 10.8 21.1 11.5 20 11.5 L12 11.5 C10.9 11.5 10 10.8 10 9.8 Z" fill="#fff" stroke="#3E3128" stroke-width="1.7" stroke-linejoin="round"/>
  <circle cx="12.8" cy="18" r="1.05" fill="#3E3128"/>
  <circle cx="19.2" cy="18" r="1.05" fill="#3E3128"/>
  <path d="M16 20.4 L15.1 21.5 Q16 22.2 16.9 21.5 Z" fill="#3E3128"/>
  <path d="M14.7 23 Q16 24.1 17.3 23" stroke="#3E3128" stroke-width="1.3" stroke-linecap="round"/>
</svg>
